<svg width="24" height="24" viewBox="0 0 24 24" fill="none" xmlns="http://www.w3.org/2000/svg">
<mask id="mask0_774_750" style="mask-type:alpha" maskUnits="userSpaceOnUse" x="0" y="0" width="24" height="24">
<rect width="24" height="24" fill="#D9D9D9"/>
</mask>
<g mask="url(#mask0_774_750)">
<path d="M10.5808 16.2538L17.3038 9.53077L16.25 8.47695L10.5808 14.1462L7.73077 11.2962L6.67695 12.35L10.5808 16.2538ZM12.0017 21.5C10.6877 21.5 9.45271 21.2506 8.29658 20.752C7.14042 20.2533 6.13474 19.5766 5.27953 18.7217C4.42429 17.8669 3.74723 16.8616 3.24835 15.706C2.74947 14.5504 2.50002 13.3156 2.50002 12.0017C2.50002 10.6877 2.74936 9.45271 3.24803 8.29657C3.74669 7.14042 4.42344 6.13474 5.27828 5.27952C6.13313 4.42429 7.13837 3.74723 8.294 3.24835C9.44962 2.74947 10.6844 2.50002 11.9983 2.50002C13.3123 2.50002 14.5473 2.74936 15.7034 3.24802C16.8596 3.74669 17.8653 4.42344 18.7205 5.27827C19.5757 6.13312 20.2528 7.13837 20.7517 8.294C21.2505 9.44962 21.5 10.6844 21.5 11.9983C21.5 13.3123 21.2506 14.5473 20.752 15.7034C20.2533 16.8596 19.5766 17.8653 18.7217 18.7205C17.8669 19.5757 16.8616 20.2528 15.706 20.7516C14.5504 21.2505 13.3156 21.5 12.0017 21.5Z" />
</g>
</svg>
