<svg width="100" height="100" viewBox="0 0 100 100" fill="none" xmlns="http://www.w3.org/2000/svg">
<mask id="mask0_734_256" style="mask-type:alpha" maskUnits="userSpaceOnUse" x="18" y="18" width="64" height="64">
<rect x="18" y="18" width="64" height="64" fill="#D9D9D9"/>
</mask>
<g mask="url(#mask0_734_256)">
<path d="M46.2668 62.2669L65.0668 43.467L61.3335 39.7336L46.2668 54.8003L38.6668 47.2003L34.9335 50.9336L46.2668 62.2669ZM50.0002 76.6669C46.3113 76.6669 42.8446 75.9669 39.6002 74.5669C36.3557 73.1669 33.5335 71.267 31.1335 68.867C28.7335 66.4669 26.8335 63.6447 25.4335 60.4003C24.0335 57.1558 23.3335 53.6892 23.3335 50.0003C23.3335 46.3114 24.0335 42.8447 25.4335 39.6003C26.8335 36.3558 28.7335 33.5336 31.1335 31.1336C33.5335 28.7336 36.3557 26.8336 39.6002 25.4336C42.8446 24.0336 46.3113 23.3336 50.0002 23.3336C53.6891 23.3336 57.1557 24.0336 60.4002 25.4336C63.6446 26.8336 66.4668 28.7336 68.8668 31.1336C71.2668 33.5336 73.1668 36.3558 74.5668 39.6003C75.9668 42.8447 76.6668 46.3114 76.6668 50.0003C76.6668 53.6892 75.9668 57.1558 74.5668 60.4003C73.1668 63.6447 71.2668 66.4669 68.8668 68.867C66.4668 71.267 63.6446 73.1669 60.4002 74.5669C57.1557 75.9669 53.6891 76.6669 50.0002 76.6669ZM50.0002 71.3336C55.9557 71.3336 61.0002 69.2669 65.1335 65.1336C69.2668 61.0003 71.3335 55.9558 71.3335 50.0003C71.3335 44.0447 69.2668 39.0003 65.1335 34.867C61.0002 30.7336 55.9557 28.667 50.0002 28.667C44.0446 28.667 39.0002 30.7336 34.8668 34.867C30.7335 39.0003 28.6668 44.0447 28.6668 50.0003C28.6668 55.9558 30.7335 61.0003 34.8668 65.1336C39.0002 69.2669 44.0446 71.3336 50.0002 71.3336Z" />
</g>
</svg>
