<svg width="current" height="current" viewBox="0 0 22 22" fill="current" xmlns="http://www.w3.org/2000/svg">
<path fill-rule="evenodd" clip-rule="evenodd" d="M7.90295 3.23511C8.73077 2.45085 9.84547 2.01672 11 2.01672C12.1546 2.01672 13.2693 2.45085 14.0971 3.23511C14.7442 3.84814 15.1748 4.63695 15.3327 5.49041H18.1482C18.6243 5.49041 19.0667 5.87211 19.0667 6.39743V19.0764C19.0667 19.6091 18.6266 19.9834 18.1482 19.9834H3.84189C3.61571 19.9803 3.39241 19.8945 3.22063 19.7334C3.04763 19.5711 2.93996 19.3434 2.93359 19.0952L2.93335 19.0858V6.39743C2.93335 5.86469 3.37347 5.49041 3.85185 5.49041H6.6673C6.82522 4.63695 7.25586 3.84814 7.90295 3.23511ZM8.17379 5.49041H13.8262C13.6945 5.04765 13.4438 4.63656 13.0884 4.29984C12.541 3.78121 11.7904 3.48339 11 3.48339C10.2096 3.48339 9.45908 3.78121 8.91164 4.29984C8.55622 4.63656 8.30552 5.04765 8.17379 5.49041ZM4.40002 6.95707V18.5167H17.6V13.4702H11V12.0036H17.6V6.95707H4.40002Z" fill="black"/>
</svg>
