<svg width="current" height="current" viewBox="0 0 24 24" fill="none" xmlns="http://www.w3.org/2000/svg">
<path d="M12 5V19H19V5H12ZM4 3H20C20.2652 3 20.5196 3.10536 20.7071 3.29289C20.8946 3.48043 21 3.73478 21 4V20C21 20.2652 20.8946 20.5196 20.7071 20.7071C20.5196 20.8946 20.2652 21 20 21H4C3.73478 21 3.48043 20.8946 3.29289 20.7071C3.10536 20.5196 3 20.2652 3 20V4C3 3.73478 3.10536 3.48043 3.29289 3.29289C3.48043 3.10536 3.73478 3 4 3Z" fill="black"/>
<path d="M8.62 9.92L10 12.92V9.92H11.02V14.54H9.82L8.44 11.54V14.54H7.42V9.92H8.62Z" fill="white"/>
<path d="M11.8614 9.92H13.4214L14.1414 13.628L14.8614 9.92H16.4214V14.54H15.4614V11.36L14.8194 14.54H13.4634L12.8214 11.36V14.54H11.8614V9.92Z" fill="black"/>
</svg>
