<svg width="19" height="18" viewBox="0 0 19 18" fill="none" xmlns="http://www.w3.org/2000/svg">
<path d="M9.5 2.4375C10.1394 2.4375 10.7525 2.68443 11.2046 3.12397C11.6567 3.56351 11.9107 4.15965 11.9107 4.78125V5.25H7.08929V4.78125C7.08929 4.15965 7.34327 3.56351 7.79537 3.12397C8.24746 2.68443 8.86064 2.4375 9.5 2.4375ZM12.875 5.25V4.78125C12.875 3.91101 12.5194 3.07641 11.8865 2.46106C11.2536 1.8457 10.3951 1.5 9.5 1.5C8.60489 1.5 7.74645 1.8457 7.11351 2.46106C6.48058 3.07641 6.125 3.91101 6.125 4.78125V5.25H2.75V14.625C2.75 15.1223 2.95319 15.5992 3.31487 15.9508C3.67654 16.3025 4.16708 16.5 4.67857 16.5H14.3214C14.8329 16.5 15.3235 16.3025 15.6851 15.9508C16.0468 15.5992 16.25 15.1223 16.25 14.625V5.25H12.875ZM3.71429 6.1875H15.2857V14.625C15.2857 14.8736 15.1841 15.1121 15.0033 15.2879C14.8224 15.4637 14.5772 15.5625 14.3214 15.5625H4.67857C4.42283 15.5625 4.17756 15.4637 3.99672 15.2879C3.81588 15.1121 3.71429 14.8736 3.71429 14.625V6.1875Z" fill="#A0A0A0"/>
</svg>
