<svg width="24" height="24" viewBox="0 0 24 24" fill="none" xmlns="http://www.w3.org/2000/svg">
<path fill-rule="evenodd" clip-rule="evenodd" d="M15.2143 6.375C15.2143 5.5462 14.8756 4.75134 14.2728 4.16529C13.67 3.57924 12.8525 3.25 12 3.25C11.1475 3.25 10.33 3.57924 9.72716 4.16529C9.12436 4.75134 8.78571 5.5462 8.78571 6.375V7H15.2143V6.375ZM16.5 6.375V7H21V19.5C21 20.163 20.7291 20.7989 20.2468 21.2678C19.7646 21.7366 19.1106 22 18.4286 22H5.57143C4.88944 22 4.23539 21.7366 3.75315 21.2678C3.27092 20.7989 3 20.163 3 19.5V7H7.5V6.375C7.5 5.21468 7.97411 4.10188 8.81802 3.28141C9.66193 2.46094 10.8065 2 12 2C13.1935 2 14.3381 2.46094 15.182 3.28141C16.0259 4.10188 16.5 5.21468 16.5 6.375ZM15.6694 13.0675C15.7901 12.9501 15.858 12.791 15.858 12.625C15.858 12.459 15.7901 12.2999 15.6694 12.1825C15.5487 12.0651 15.385 11.9992 15.2143 11.9992C15.0436 11.9992 14.8799 12.0651 14.7591 12.1825L11.3571 15.4913L9.88371 14.0575C9.82394 13.9994 9.75299 13.9533 9.67489 13.9218C9.5968 13.8904 9.5131 13.8742 9.42857 13.8742C9.34404 13.8742 9.26034 13.8904 9.18225 13.9218C9.10416 13.9533 9.0332 13.9994 8.97343 14.0575C8.91366 14.1156 8.86625 14.1846 8.8339 14.2605C8.80155 14.3364 8.7849 14.4178 8.7849 14.5C8.7849 14.5822 8.80155 14.6636 8.8339 14.7395C8.86625 14.8154 8.91366 14.8844 8.97343 14.9425L10.902 16.8175C10.9617 16.8757 11.0327 16.9219 11.1108 16.9534C11.1889 16.9849 11.2726 17.0011 11.3571 17.0011C11.4417 17.0011 11.5254 16.9849 11.6035 16.9534C11.6816 16.9219 11.7526 16.8757 11.8123 16.8175L15.6694 13.0675Z" fill="black"/>
</svg>
