<svg width="20" height="20" viewBox="0 0 20 20" fill="none" xmlns="http://www.w3.org/2000/svg">
<mask id="mask0_471_415" style="mask-type:alpha" maskUnits="userSpaceOnUse" x="0" y="0" width="20" height="20">
<rect width="20" height="20" fill="#D9D9D9"/>
</mask>
<g mask="url(#mask0_471_415)">
<path d="M10 13.3335C11.0417 13.3335 11.9271 12.9689 12.6563 12.2397C13.3855 11.5106 13.75 10.6252 13.75 9.5835C13.75 8.54183 13.3855 7.65641 12.6563 6.92725C11.9271 6.19808 11.0417 5.8335 10 5.8335C8.95837 5.8335 8.07296 6.19808 7.34379 6.92725C6.61462 7.65641 6.25004 8.54183 6.25004 9.5835C6.25004 10.6252 6.61462 11.5106 7.34379 12.2397C8.07296 12.9689 8.95837 13.3335 10 13.3335ZM10 11.8335C9.37504 11.8335 8.84379 11.6147 8.40629 11.1772C7.96879 10.7397 7.75004 10.2085 7.75004 9.5835C7.75004 8.9585 7.96879 8.42725 8.40629 7.98975C8.84379 7.55225 9.37504 7.3335 10 7.3335C10.625 7.3335 11.1563 7.55225 11.5938 7.98975C12.0313 8.42725 12.25 8.9585 12.25 9.5835C12.25 10.2085 12.0313 10.7397 11.5938 11.1772C11.1563 11.6147 10.625 11.8335 10 11.8335ZM10 15.8335C7.97226 15.8335 6.12504 15.2675 4.45837 14.1356C2.79171 13.0036 1.58337 11.4863 0.833374 9.5835C1.58337 7.68072 2.79171 6.16336 4.45837 5.03141C6.12504 3.89947 7.97226 3.3335 10 3.3335C12.0278 3.3335 13.875 3.89947 15.5417 5.03141C17.2084 6.16336 18.4167 7.68072 19.1667 9.5835C18.4167 11.4863 17.2084 13.0036 15.5417 14.1356C13.875 15.2675 12.0278 15.8335 10 15.8335Z"/>
</g>
</svg>
